<svg width="34" height="43" viewBox="0 0 34 43" fill="none" xmlns="http://www.w3.org/2000/svg">
<path d="M5.62238 6.63428L4.63598 6.79868L5.62238 6.63428ZM30.2612 1.63713L31.2293 1.38641L30.2612 1.63713ZM29.4793 1.65279L30.4566 1.86454L29.4793 1.65279ZM7.94454 36.34L8.47987 35.4953L7.94454 36.34ZM4.634 26.9726L5.58118 27.2933L4.634 26.9726ZM5.85886 23.355L6.80604 23.6757L5.85886 23.355ZM9.0536 17.6273L9.82414 18.2647L9.0536 17.6273ZM27.5014 21.9321L26.5891 22.3416L27.5014 21.9321ZM25.5996 18.6612L26.4067 18.0709L25.5996 18.6612ZM3.39244 21.1585L2.48802 21.5852L3.39244 21.1585ZM18.1413 41.2656L18.6434 42.1304L18.1413 41.2656ZM15.6394 41.217L16.1748 40.3724L15.6394 41.217ZM18.6434 42.1304L26.6895 37.4584L25.6852 35.7289L17.6391 40.4008L18.6434 42.1304ZM7.4092 37.1846L15.1041 42.0616L16.1748 40.3724L8.47987 35.4953L7.4092 37.1846ZM30.3969 25.9413L29.8446 24.7106L28.0199 25.5296L28.5723 26.7603L30.3969 25.9413ZM29.8446 24.7106L28.4137 21.5226L26.5891 22.3416L28.0199 25.5296L29.8446 24.7106ZM29.8589 25.4959L31.8846 20.5002L30.0311 19.7487L28.0055 24.7443L29.8589 25.4959ZM32.7567 7.28413L31.2293 1.38641L29.2931 1.88785L30.8206 7.78557L32.7567 7.28413ZM28.502 1.44104L27.3544 6.73764L29.309 7.16114L30.4566 1.86454L28.502 1.44104ZM26.4067 18.0709L24.0759 14.8839L22.4616 16.0645L24.7924 19.2516L26.4067 18.0709ZM23.6594 14.5536L23.3622 14.4275L22.581 16.2686L22.8781 16.3947L23.6594 14.5536ZM4.91168 23.0343L4.31406 24.7994L6.20842 25.4408L6.80604 23.6757L4.91168 23.0343ZM4.31406 24.7994L3.68682 26.6519L5.58118 27.2933L6.20842 25.4408L4.31406 24.7994ZM6.16566 24.6935L4.29687 20.7319L2.48802 21.5852L4.35682 25.5467L6.16566 24.6935ZM3.39822 6.70898L4.96059 1.8779L3.05762 1.26249L1.49526 6.09357L3.39822 6.70898ZM3.80157 1.79219L4.63598 6.79868L6.60877 6.46988L5.77436 1.46339L3.80157 1.79219ZM10.0641 14.8368L8.28306 16.9899L9.82414 18.2647L11.6052 16.1116L10.0641 14.8368ZM4.63598 6.79868C5.25853 10.534 7.24616 13.9049 10.2134 16.2577L11.456 14.6906C8.87724 12.6458 7.14982 9.71616 6.60877 6.46988L4.63598 6.79868ZM27.3544 6.73764C26.682 9.84116 25.0186 12.6419 22.6152 14.7173L23.9223 16.231C26.6541 13.872 28.5448 10.6887 29.309 7.16114L27.3544 6.73764ZM31.2293 1.38641C30.859 -0.0433812 28.8147 -0.00239986 28.502 1.44104L30.4566 1.86454C30.3232 2.48033 29.4511 2.49783 29.2931 1.88785L31.2293 1.38641ZM31.8846 20.5002C33.5866 16.3027 33.8923 11.6689 32.7567 7.28413L30.8206 7.78557C31.8486 11.7546 31.5718 15.9491 30.0311 19.7487L31.8846 20.5002ZM8.47987 35.4953C5.73748 33.7572 4.53993 30.3687 5.58118 27.2933L3.68682 26.6519C2.34969 30.6011 3.88754 34.9526 7.4092 37.1846L8.47987 35.4953ZM6.80604 23.6757C7.47391 21.7032 8.49676 19.8694 9.82414 18.2647L8.28306 16.9899C6.8003 18.7824 5.65772 20.8309 4.91168 23.0343L6.80604 23.6757ZM23.3622 14.4275C19.2191 12.6694 14.5307 12.7181 10.425 14.5619L11.2443 16.3864C14.8421 14.7707 18.9505 14.728 22.581 16.2686L23.3622 14.4275ZM4.96059 1.8779C4.76781 2.47401 3.90456 2.41016 3.80157 1.79219L5.77436 1.46339C5.53294 0.0148752 3.5095 -0.134778 3.05762 1.26249L4.96059 1.8779ZM28.4137 21.5226C27.8672 20.3051 27.1946 19.1482 26.4067 18.0709L24.7924 19.2516C25.4977 20.2159 26.0999 21.2516 26.5891 22.3416L28.4137 21.5226ZM4.29687 20.7319C2.22589 16.3417 1.90457 11.3276 3.39822 6.70898L1.49526 6.09357C-0.15483 11.1959 0.200147 16.7352 2.48802 21.5852L4.29687 20.7319ZM26.6895 37.4584C30.6916 35.1347 32.2918 30.1634 30.3969 25.9413L28.5723 26.7603C30.0479 30.0481 28.8017 33.9193 25.6852 35.7289L26.6895 37.4584ZM17.6391 40.4008C17.1839 40.6651 16.6194 40.6542 16.1748 40.3724L15.1041 42.0616C16.1787 42.7428 17.5431 42.7692 18.6434 42.1304L17.6391 40.4008Z" fill="#444444"/>
</svg>
