<svg width="29" height="36" viewBox="0 0 29 36" fill="none" xmlns="http://www.w3.org/2000/svg">
<path d="M15.2069 34.5544C15.0986 35.0959 15.4498 35.6228 15.9914 35.7311C16.5329 35.8394 17.0598 35.4882 17.1681 34.9466L15.2069 34.5544ZM23.9181 1.1966C24.0264 0.655045 23.6752 0.12822 23.1336 0.0199077C22.5921 -0.0884043 22.0652 0.262812 21.9569 0.804372L23.9181 1.1966ZM17.1681 34.9466L23.9181 1.1966L21.9569 0.804372L15.2069 34.5544L17.1681 34.9466Z" fill="#444444"/>
<path d="M5.08192 34.5544C4.97361 35.0959 5.32482 35.6228 5.86638 35.7311C6.40794 35.8394 6.93477 35.4882 7.04308 34.9466L5.08192 34.5544ZM13.7931 1.1966C13.9014 0.655045 13.5502 0.12822 13.0086 0.0199077C12.4671 -0.0884043 11.9402 0.262812 11.8319 0.804372L13.7931 1.1966ZM7.04308 34.9466L13.7931 1.1966L11.8319 0.804372L5.08192 34.5544L7.04308 34.9466Z" fill="#444444"/>
<path d="M4.37506 10.9692C3.82278 10.9692 3.37506 11.417 3.37506 11.9692C3.37506 12.5215 3.82278 12.9692 4.37506 12.9692V10.9692ZM28.0001 12.9692C28.5523 12.9692 29.0001 12.5215 29.0001 11.9692C29.0001 11.417 28.5523 10.9692 28.0001 10.9692V12.9692ZM4.37506 12.9692H28.0001V10.9692H4.37506V12.9692Z" fill="#444444"/>
<path d="M1.00012 21.0942C0.447837 21.0942 0.00012213 21.542 0.00012213 22.0942C0.00012213 22.6465 0.447837 23.0942 1.00012 23.0942V21.0942ZM24.6251 23.0942C25.1774 23.0942 25.6251 22.6465 25.6251 22.0942C25.6251 21.542 25.1774 21.0942 24.6251 21.0942V23.0942ZM1.00012 23.0942H24.6251V21.0942H1.00012V23.0942Z" fill="#444444"/>
</svg>
