<svg width="35" height="42" viewBox="0 0 35 42" fill="none" xmlns="http://www.w3.org/2000/svg">
<path d="M19.9775 40.0005V23.1116M19.9775 40.0005L4.51685 30.5005M19.9775 40.0005L34 31.9079M19.9775 23.1116L27.8876 15.7227M19.9775 23.1116L34 31.9079M19.9775 23.1116L15.8427 14.1394M27.8876 15.7227L34 13.6116M27.8876 15.7227L23.573 2.00049M34 13.6116L23.573 2.00049M34 13.6116V31.9079M23.573 2.00049L11.7079 5.16715M23.573 2.00049L15.8427 14.1394M11.7079 5.16715L2 17.1301L4.51685 30.5005M11.7079 5.16715L15.8427 14.1394M4.51685 30.5005L15.8427 14.1394" stroke="#444444" stroke-width="2"/>
</svg>
