<svg width="36" height="36" viewBox="0 0 36 36" fill="none" xmlns="http://www.w3.org/2000/svg">
<path d="M19.1685 34V20.2222M19.1685 34L6.1236 26.25M19.1685 34L31 27.3981M19.1685 20.2222L25.8427 14.1944M19.1685 20.2222L31 27.3981M19.1685 20.2222L15.6798 12.9028M25.8427 14.1944L31 12.4722M25.8427 14.1944L22.2022 3M31 12.4722L22.2022 3M31 12.4722V27.3981M22.2022 3L12.191 5.58333M22.2022 3L15.6798 12.9028M12.191 5.58333L4 15.3426L6.1236 26.25M12.191 5.58333L15.6798 12.9028M6.1236 26.25L15.6798 12.9028" stroke="#444444" stroke-width="2"/>
</svg>
