<svg width="12" height="12" viewBox="0 0 12 12" fill="none" xmlns="http://www.w3.org/2000/svg">
<path fill-rule="evenodd" clip-rule="evenodd" d="M2.00584 0.827452C1.6804 0.502015 1.15277 0.502015 0.82733 0.827452C0.501893 1.15289 0.501893 1.68053 0.82733 2.00596L4.82141 6.00004L0.82733 9.99412C0.501893 10.3196 0.501893 10.8472 0.82733 11.1726C1.15277 11.4981 1.6804 11.4981 2.00584 11.1726L5.99992 7.17855L9.994 11.1726C10.3194 11.4981 10.8471 11.4981 11.1725 11.1726C11.4979 10.8472 11.4979 10.3196 11.1725 9.99412L7.17843 6.00004L11.1725 2.00596C11.4979 1.68053 11.4979 1.15289 11.1725 0.827452C10.8471 0.502015 10.3194 0.502015 9.994 0.827452L5.99992 4.82153L2.00584 0.827452Z" fill="#A0A0A0"/>
</svg>
