<svg width="23" height="22" viewBox="0 0 23 22" fill="none" xmlns="http://www.w3.org/2000/svg">
<path d="M1.38864 12.5861C1.38864 15.7294 2.81307 18.5191 5.8573 19.8407C7.71749 20.6776 9.82207 20.8206 11.7187 20.8206C13.9701 20.8206 15.8816 20.4963 17.4268 19.8166C20.3925 18.526 22.1745 15.7701 22.1745 12.5861V12.5666V12.5471V12.5276V12.5081V12.4886V12.4691V12.4496V12.4302V12.4107V12.3912V12.3717V12.3522V12.3327V12.3132V12.2937V12.2742V12.2547V12.2353V12.2158V12.1963V12.1768V12.1573V12.1378V12.1184V12.0989V12.0794V12.0599V12.0404V12.0209V12.0015V11.982V11.9625V11.943V11.9235V11.9041V11.8846V11.8651V11.8456V11.8261V11.8067V11.7872V11.7677V11.7482V11.7287V11.7093V11.6898V11.6703V11.6508V11.6313V11.6119V11.5924V11.5729V11.5534V11.534V11.5145V11.495V11.4755V11.456V11.4366V11.4171V11.3976V11.3781V11.3586V11.3392V11.3197V11.3002V11.2807V11.2612V11.2418V11.2223V11.2028V11.1833V11.1638V11.1444V11.1249V11.1054V11.0859V11.0664V11.0469V11.0275V11.008V10.9885V10.969V10.9495V10.93V10.9106V10.8911V10.8716V10.8521V10.8326V10.8131V10.7936V10.7741V10.7546V10.7352V10.7157V10.6962V10.6767V10.6572V10.6377V10.6182V10.5987V10.5792V10.5597V10.5402V10.5207V10.5012V10.4817V10.4622V10.4427V10.4232V10.4037V10.3842V10.3647V10.3452V10.3257V10.3062V10.2866V10.2671V10.2476V10.2281V10.2086V10.1891V10.1696V10.1501V10.1305V10.111V10.0915V10.072V10.0525V10.0329V10.0134V9.99389V9.97436V9.95483V9.9353V9.91577V9.89624V9.87671V9.85718V9.83764V9.81811V9.79857V9.77903V9.75949V9.73995V9.72041V9.70086V9.68132V9.66177V9.64222V9.62267V9.60312V9.58357V9.56402V9.54446V9.5249V9.50535V9.48579V9.46622V9.44666V9.4271V9.40753V9.38796V9.36839V9.34882V9.32925V9.30968V9.2901V9.27052V9.25094V9.23136V9.21178V9.19219V9.17261V9.15302V9.13343V9.11384V9.09425V9.07465V9.05505V9.03546V9.01586V8.99625V8.97665V8.95704V8.93743V8.91782V8.89821V8.8786V8.85898V8.83936V8.81974V8.80012V8.7805V8.76087V8.74124V8.72161V8.70198V8.68235V8.66271V8.64307V8.62343V8.60379V8.58414V8.56449V8.54485V8.52519V8.50554V8.48588V8.46622V8.44656V8.4269V8.40724V8.38757V8.3679V8.34823V8.32855V8.30887V8.28919V8.26951V8.24983V8.23014V8.21045V8.19076V8.17107V8.15137V8.13167V8.11197V8.09226V8.07256V8.05285V8.03314V8.01342V7.9937V7.97398V7.95426V7.93454V7.91481V7.89508V7.87535V7.85561V7.83587V7.81613V7.79639V7.77664V7.75689V7.73714V7.71738V7.69763V7.67787V7.6581V7.63834V7.61857V7.59879V7.57902V7.55924V7.53946V7.51968V7.49989V7.4801V7.46031V7.44051V7.42071V7.40091V7.38111V7.3613V7.34149V7.32167V7.30186V7.28204V7.26221V7.24239V7.22256V7.20272V7.18289V7.16305V7.1432V7.12336V7.10351V7.08366V7.0638V7.04394V7.02408V7.00422V6.98435V6.96447V6.9446V6.92472V6.90484V6.88495V6.86506V6.84517V6.82527V6.80538V6.78547V6.76557V6.74566V6.72574V6.70583V6.68591V6.66598V6.64605V6.62612V6.60619V6.58625V6.56631V6.54636V6.52641V6.50646V6.4865V6.46654V6.44658V6.42661V6.40664V6.38666V6.36668V6.3467V6.32672V6.30673V6.28673V6.26673V6.24673V6.22672V6.20671V6.1867V6.16668V6.14666V6.12664V6.10661V6.08657V6.06654V6.04649V6.02645V6.0064V5.98635V5.96629V5.94623V5.92616V5.90609V5.88602V5.86594V5.84586V5.82577V5.80568V5.78558V5.76549V5.74538V5.72528V5.70516V5.68505V5.66493V5.6448V5.62467V5.60454V5.5844V5.56426V5.54412V5.52397V5.50381V5.48365V5.46349V5.44332V5.42315V5.40297V5.38279V5.3626V5.34241V5.32222V5.30202V5.28181V5.26161V5.24139V5.22117V5.20095V5.18072V5.16049V5.14026V5.12002V5.09977V5.07952V5.05926V5.03901V5.01874V4.99847V4.9782V4.95792V4.93764V4.91735V4.89705V4.87676V4.85645V4.83615V4.81583V4.79552V4.77519V4.75487V4.73453V4.7142V4.69385V4.67351V4.65316V4.6328V4.61244V4.59207V4.5717V4.55132V4.53094V4.51055V4.49016V4.46976V4.44936V4.42895V4.40854V4.38812V4.3677V4.34727V4.32683V4.30639V4.28595V4.2655V4.24505V4.22459V4.20412V4.18365V4.16317V4.14269V4.12221V4.10171V4.08122V4.06071V4.04021V4.01969V3.99917V3.97865V3.95812V3.93758V3.91704V3.8965V3.87594V3.85539V3.83482V3.81425V3.79368V3.7731V3.75251V3.73192V3.71133V3.69072V3.67012V3.6495V3.62888V3.60826V3.58763V3.56699V3.54635V3.5257V3.50504V3.48438V3.46372V3.44305V3.42237V3.40169V3.381V3.3603V3.3396V3.3189V3.29818V3.27746V3.25674V3.23601V3.21527V3.19453V3.17378V3.15303V3.13227V3.1115V3.09073V3.06995V3.04916V3.02837V3.00758V2.98677V2.96596V2.94515V2.92433V2.9035V2.88266V2.86182V2.84098V2.82012V2.79926V2.7784V2.75753V2.73665V2.71576V2.69487V2.67398V2.65307V2.63216V2.61125V2.59032V2.56939V2.54846V2.52752V2.50657V2.48561V2.46465V2.44368V2.42271V2.40173V2.38074C22.1745 1.11751 20.5935 0.551925 19.7893 1.52134L19.7615 1.55476L19.7388 1.59174L17.7236 4.86823C17.5867 4.79866 17.4472 4.73214 17.3052 4.66875L17.3052 4.6687L17.2974 4.66536C15.5523 3.91487 13.6237 3.66287 11.7942 3.66287C9.71563 3.66287 7.88232 3.99913 6.31072 4.69276L6.31071 4.69276L6.30834 4.69382C6.15927 4.76036 6.01277 4.83061 5.86896 4.90442L3.82387 1.59093L3.80131 1.55439L3.77389 1.52134C2.96964 0.551925 1.38864 1.1175 1.38864 2.38074L1.38864 2.38085C1.38967 8.01919 1.38923 9.56522 1.38889 10.7507C1.38873 11.3115 1.38859 11.7916 1.38864 12.5861ZM1.38864 12.5861H2.00294M1.38864 12.5861H2.00294M2.00294 12.5861C2.00289 11.7919 2.00303 11.3119 2.00319 10.7511C2.00353 9.56554 2.00397 8.01913 2.00294 2.38074C2.00294 1.69475 2.86285 1.3853 3.30112 1.91357M2.00294 12.5861C2.00294 15.5363 3.32604 18.0739 6.10569 19.2788C7.84199 20.0611 9.83782 20.2063 11.7187 20.2063C13.9169 20.2063 15.7375 19.8888 17.1806 19.2538L3.30112 1.91357M3.30112 1.91357L5.65468 5.72685C5.94256 5.55295 6.24431 5.39514 6.55876 5.25476C8.03541 4.60303 9.78055 4.27717 11.7942 4.27717C13.5728 4.27717 15.4114 4.52298 17.0547 5.22969C17.3636 5.36757 17.659 5.52092 17.9401 5.68877L20.2621 1.91357L3.30112 1.91357Z" stroke="white" stroke-width="1.2286"/>
<path fill-rule="evenodd" clip-rule="evenodd" d="M19.2952 10.596C19.2952 12.2734 17.9353 13.6333 16.2578 13.6333C14.5803 13.6333 13.2205 12.2734 13.2205 10.596C13.2205 8.91847 14.5803 7.55859 16.2578 7.55859C17.9353 7.55859 19.2952 8.91847 19.2952 10.596ZM10.4592 10.5961C10.4592 12.2736 9.09937 13.6335 7.42188 13.6335C5.74439 13.6335 4.38452 12.2736 4.38452 10.5961C4.38452 8.91864 5.74439 7.55876 7.42188 7.55876C9.09937 7.55876 10.4592 8.91864 10.4592 10.5961ZM10.8024 15.9296C10.3598 15.6207 10.0704 15.1081 10.0704 14.5281C10.0704 13.401 13.4929 13.401 13.4929 14.5281C13.4929 15.1082 13.2034 15.6208 12.7607 15.9297C13.501 16.6958 14.9882 17.101 16.5831 15.6258C16.7812 15.4426 17.0906 15.4544 17.2741 15.6522C17.4576 15.85 17.4457 16.1589 17.2476 16.3421C15.148 18.2841 12.7825 17.6806 11.7815 16.3171C10.7805 17.6805 8.41509 18.2839 6.31555 16.342C6.11745 16.1588 6.10561 15.8499 6.28911 15.6521C6.47261 15.4543 6.78196 15.4425 6.98006 15.6257C8.57493 17.1008 10.0621 16.6957 10.8024 15.9296Z" fill="white"/>
</svg>
