<svg width="135" height="25" viewBox="0 0 135 25" fill="none" xmlns="http://www.w3.org/2000/svg">
<path fill-rule="evenodd" clip-rule="evenodd" d="M1.00297 2.31456C1.00297 1.543 1.97015 1.19494 2.46309 1.78911L5.11026 6.07809C5.43405 5.8825 5.77344 5.705 6.12712 5.54711C7.78798 4.81408 9.75082 4.44756 12.0156 4.44756C14.0162 4.44756 16.0841 4.72404 17.9325 5.51891C18.2798 5.67399 18.6121 5.84647 18.9282 6.03526L21.5399 1.78911C22.0328 1.19494 23 1.543 23 2.31456C23 6.34391 23 10.0504 23 13.793C23 17.1009 21.1572 19.9514 18.074 21.2925C16.4509 22.0067 14.4031 22.3638 11.9307 22.3638C9.81524 22.3638 7.57044 22.2005 5.61754 21.3207C2.49113 19.9654 1.00297 17.1112 1.00297 13.793C1.00279 11.0113 1.00468 11.6561 1.00297 2.31456Z" stroke="white" stroke-width="1.38187"/>
<path d="M10.0703 15.5274C10.0703 16.4711 10.8365 17.2361 11.7816 17.2361C12.7267 17.2361 13.4929 16.4711 13.4929 15.5274C13.4929 14.4004 10.0703 14.4004 10.0703 15.5274Z" fill="white"/>
<path fill-rule="evenodd" clip-rule="evenodd" d="M11.7816 15.397C12.0516 15.397 12.2705 15.6155 12.2705 15.8852C12.2705 18.0628 9.065 19.8849 6.31552 17.3418C6.11742 17.1586 6.10559 16.8497 6.28909 16.6519C6.47259 16.4541 6.78194 16.4423 6.98004 16.6255C9.24495 18.7204 11.2926 17.0232 11.2926 15.8852C11.2926 15.6155 11.5115 15.397 11.7816 15.397Z" fill="white"/>
<path fill-rule="evenodd" clip-rule="evenodd" d="M11.7815 15.397C11.5115 15.397 11.2926 15.6155 11.2926 15.8852C11.2926 18.0628 14.4981 19.8849 17.2476 17.3418C17.4457 17.1586 17.4575 16.8497 17.274 16.6519C17.0905 16.4541 16.7812 16.4423 16.5831 16.6255C14.3182 18.7204 12.2705 17.0232 12.2705 15.8852C12.2705 15.6155 12.0516 15.397 11.7815 15.397Z" fill="white"/>
<circle cx="16.2578" cy="11.5955" r="3.03736" fill="white"/>
<circle cx="7.42185" cy="11.5955" r="3.03736" fill="white"/>
<path d="M30.3676 16.8279V5.41845L33.0875 2.69848H41.4159L44.1359 5.41845V16.8279L41.4159 19.5479H33.0875L30.3676 16.8279ZM39.9717 17.1408L41.3437 15.7929V6.45349L39.9717 5.10554H34.5318L33.1598 6.45349V15.7929L34.5318 17.1408H39.9717ZM45.9504 7.56073H48.4778V9.43823L50.3794 7.56073H54.9769L57.3839 9.96778V17.1408L54.9769 19.5479H50.3553L48.6704 18.1277V24.6508H45.9504V7.56073ZM53.7011 17.213L54.6639 16.2743V10.8343L53.7011 9.89557H50.8127L48.6704 12.0378V15.3837L50.6923 17.213H53.7011ZM58.8216 17.1649V9.96778L61.2045 7.56073H67.7277L70.1588 9.96778V14.4449H61.5415V16.3705L62.4562 17.2852H66.5723L67.4388 16.3946V15.6725H70.1347V17.213L67.7999 19.5479H61.1805L58.8216 17.1649ZM67.4388 12.447V10.7862L66.5001 9.82336H62.4803L61.5415 10.7862V12.447H67.4388ZM71.7275 7.56073H74.2549V9.75115L76.4453 7.56073H80.2485L82.7759 10.0881V19.5479H80.0559V10.8343L79.1171 9.89557H76.9508L74.4475 12.423V19.5479H71.7275V7.56073ZM84.7011 2.69848H87.4933V17.1649H95.9661V19.5479H84.7011V2.69848ZM96.0857 17.4056V14.5653L98.228 12.447H104.414V10.6658L103.524 9.77522H99.7445L98.8538 10.6658V11.4361H96.182V10.04L98.6372 7.56073H104.631L107.086 10.04V19.5479H104.607V17.6944L102.681 19.5479H98.228L96.0857 17.4056ZM102.416 17.4056L104.414 15.4799V14.469H99.5278L98.7576 15.2152V16.6835L99.4797 17.4056H102.416ZM108.9 7.56073H111.428V9.75115L113.618 7.56073H117.421L119.949 10.0881V19.5479H117.229V10.8343L116.29 9.89557H114.124L111.62 12.423V19.5479H108.9V7.56073ZM121.513 17.1408V9.96778L123.896 7.56073H128.614L130.227 8.95682V2.3615H132.947V19.5479H130.371V17.5741L128.397 19.5479H123.896L121.513 17.1408ZM128.084 17.213L130.227 15.0467V11.5324L128.373 9.89557H125.244L124.233 10.9065V16.202L125.244 17.213H128.084Z" fill="white"/>
</svg>
