<svg width="51" height="44" viewBox="0 0 51 44" fill="none" xmlns="http://www.w3.org/2000/svg">
<path d="M45.9179 4.90095L44.9412 5.11565L45.9179 4.90095ZM44.1979 4.44667L43.4547 3.77768L44.1979 4.44667ZM47.772 22.7538L47.1024 22.0111L47.772 22.7538ZM49.0005 18.924L49.9772 18.7093L49.0005 18.924ZM5.54443 4.65794L4.58017 4.39298L5.54443 4.65794ZM1.72611 18.5537L0.761846 18.2887L1.72611 18.5537ZM37.3317 7.9489L36.3544 7.73715L37.3317 7.9489ZM38.56 2.27995L39.5373 2.49171L38.56 2.27995ZM39.3257 2.21518L38.3979 2.5881L39.3257 2.21518ZM40.4499 19.9105L39.5232 19.5348L40.4499 19.9105ZM41.743 9.67918L40.752 9.81255L41.743 9.67918ZM15.1021 36.1717L15.6374 35.3271L15.1021 36.1717ZM14.8589 24.3545L15.806 24.6752L14.8589 24.3545ZM13.7305 2.28233L14.7169 2.11793L13.7305 2.28233ZM12.9695 2.17921L13.8765 2.60019L12.9695 2.17921ZM36.5014 22.9316L37.4137 22.5221L36.5014 22.9316ZM34.5996 19.6608L33.7924 20.2511L34.5996 19.6608ZM37.7353 36.1137L37.2331 35.2489L37.7353 36.1137ZM27.1413 42.2651L27.6434 43.1299L27.1413 42.2651ZM24.6394 42.2165L25.1748 41.3719L24.6394 42.2165ZM27.6434 43.1299L38.2374 36.9785L37.2331 35.2489L26.6391 41.4003L27.6434 43.1299ZM14.5668 37.0164L24.1041 43.0611L25.1748 41.3719L15.6374 35.3271L14.5668 37.0164ZM38.8446 25.7101L37.4137 22.5221L35.5891 23.3411L37.0199 26.5291L38.8446 25.7101ZM38.8589 26.4954L41.3766 20.2863L39.5232 19.5348L37.0055 25.7439L38.8589 26.4954ZM37.5827 2.0682L36.3544 7.73715L38.3091 8.16066L39.5373 2.49171L37.5827 2.0682ZM35.4067 19.0704L33.0759 15.8834L31.4616 17.064L33.7924 20.2511L35.4067 19.0704ZM32.6594 15.5531L32.3622 15.427L31.581 17.2681L31.8781 17.3942L32.6594 15.5531ZM13.9117 24.0338L13.3141 25.7989L15.2084 26.4403L15.806 24.6752L13.9117 24.0338ZM15.1657 25.693L12.741 20.5531L10.9322 21.4064L13.3568 26.5463L15.1657 25.693ZM12.7441 2.44673L13.636 7.79819L15.6088 7.46939L14.7169 2.11793L12.7441 2.44673ZM19.0641 15.8363L17.2831 17.9894L18.8241 19.2642L20.6052 17.1111L19.0641 15.8363ZM13.3141 25.7989L11.9873 29.7176L13.8816 30.359L15.2084 26.4403L13.3141 25.7989ZM13.5298 29.2348L3.79722 22.0241L2.60662 23.6311L12.3391 30.8418L13.5298 29.2348ZM2.69036 18.8187L6.50869 4.9229L4.58017 4.39298L0.761846 18.2887L2.69036 18.8187ZM11.29 8.64499L11.4804 7.69696L9.51959 7.30304L9.32913 8.25106L11.29 8.64499ZM11.4071 7.92098L13.8765 2.60019L12.0624 1.75822L9.59293 7.07902L11.4071 7.92098ZM6.50869 4.9229L9.79289 8.20711L11.2071 6.79289L7.9229 3.50869L6.50869 4.9229ZM40.6033 29.6288L38.8446 25.7101L37.0199 26.5291L38.7787 30.4477L40.6033 29.6288ZM40.3605 30.781L48.4415 23.4966L47.1024 22.0111L39.0214 29.2955L40.3605 30.781ZM49.9772 18.7093L46.8946 4.68625L44.9412 5.11565L48.0238 19.1387L49.9772 18.7093ZM42.7341 9.54581L42.4408 7.36663L40.4587 7.63337L40.752 9.81255L42.7341 9.54581ZM42.3776 7.12708L40.2536 1.84226L38.3979 2.5881L40.5219 7.87292L42.3776 7.12708ZM43.4547 3.77768L40.7065 6.83101L42.193 8.16899L44.9412 5.11565L43.4547 3.77768ZM46.8946 4.68625C46.545 3.09627 44.5437 2.56766 43.4547 3.77768L44.9412 5.11565V5.11565L46.8946 4.68625ZM48.4415 23.4966C49.7768 22.2929 50.3632 20.4651 49.9772 18.7093L48.0238 19.1387C48.2554 20.1922 47.9036 21.2889 47.1024 22.0111L48.4415 23.4966ZM6.50869 4.9229L6.50869 4.9229L7.9229 3.50869C6.83823 2.42402 4.9866 2.91386 4.58017 4.39298L6.50869 4.9229ZM3.79722 22.0241C2.80186 21.2866 2.36213 20.0132 2.69036 18.8187L0.761846 18.2887C0.214794 20.2796 0.947672 22.402 2.60662 23.6311L3.79722 22.0241ZM13.636 7.79819C14.2585 11.5335 16.2462 14.9044 19.2134 17.2572L20.456 15.6901C17.8772 13.6453 16.1498 10.7157 15.6088 7.46939L13.636 7.79819ZM36.3544 7.73715C35.682 10.8407 34.0186 13.6414 31.6152 15.7168L32.9223 17.2305C35.6541 14.8715 37.5448 11.6882 38.3091 8.16066L36.3544 7.73715ZM39.5373 2.49171C39.4125 3.06777 38.6177 3.13501 38.3979 2.5881L40.2536 1.84226C39.7383 0.560306 37.8752 0.717906 37.5827 2.0682L39.5373 2.49171ZM41.3766 20.2863C42.7557 16.8852 43.2236 13.1831 42.7341 9.54581L40.752 9.81255C41.195 13.105 40.7715 16.4561 39.5232 19.5348L41.3766 20.2863ZM15.6374 35.3271C13.9763 34.2743 13.2509 32.2218 13.8816 30.359L11.9873 29.7176C11.0607 32.4542 12.1264 35.4696 14.5668 37.0164L15.6374 35.3271ZM15.806 24.6752C16.4739 22.7027 17.4968 20.8689 18.8241 19.2642L17.2831 17.9894C15.8003 19.7819 14.6577 21.8304 13.9117 24.0338L15.806 24.6752ZM32.3622 15.427C28.2191 13.6689 23.5307 13.7176 19.425 15.5615L20.2443 17.3859C23.8421 15.7702 27.9505 15.7275 31.581 17.2681L32.3622 15.427ZM14.7169 2.11793C14.4902 0.758061 12.6428 0.507723 12.0624 1.75822L13.8765 2.60019C13.6289 3.13368 12.8408 3.02688 12.7441 2.44673L14.7169 2.11793ZM37.4137 22.5221C36.8672 21.3046 36.1946 20.1477 35.4067 19.0704L33.7924 20.2511C34.4977 21.2154 35.0999 22.2511 35.5891 23.3411L37.4137 22.5221ZM12.741 20.5531C10.9907 16.8427 10.4819 12.6672 11.29 8.64499L9.32913 8.25106C8.43645 12.6945 8.99856 17.3073 10.9322 21.4064L12.741 20.5531ZM38.2374 36.9785C40.7914 35.4956 41.8126 32.3231 40.6033 29.6288L38.7787 30.4477C39.5686 32.2078 38.9015 34.2802 37.2331 35.2489L38.2374 36.9785ZM26.6391 41.4003C26.1839 41.6646 25.6194 41.6537 25.1748 41.3719L24.1041 43.0611C25.1787 43.7423 26.5431 43.7688 27.6434 43.1299L26.6391 41.4003Z" fill="#444444"/>
</svg>
