<svg width="54" height="51" viewBox="0 0 54 51" fill="none" xmlns="http://www.w3.org/2000/svg">
<path d="M29.4793 1.6523L28.502 1.44055L29.4793 1.6523ZM31.7887 7.53436L30.8206 7.78508L31.7887 7.53436ZM7.94454 36.3395L8.47987 35.4948L7.94454 36.3395ZM5.85886 23.3545L6.80604 23.6752L5.85886 23.3545ZM9.0536 17.6268L9.82414 18.2642L9.0536 17.6268ZM4.00911 1.56971L3.05762 1.262L4.00911 1.56971ZM4.78796 1.62731L5.77436 1.46291L4.78796 1.62731ZM27.5014 21.9316L26.5891 22.3411L27.5014 21.9316ZM25.5996 18.6607L26.4067 18.0704L25.5996 18.6607ZM3.39244 21.158L2.48802 21.5847L3.39244 21.158ZM29.4846 26.3503L28.5723 26.7598L29.4846 26.3503ZM18.1413 41.2651L18.6434 42.1299L18.1413 41.2651ZM15.6394 41.2165L16.1748 40.3719L15.6394 41.2165ZM18.6434 42.1299L26.6895 37.458L25.6852 35.7284L17.6391 40.4003L18.6434 42.1299ZM7.4092 37.1841L15.1041 42.0611L16.1748 40.3719L8.47987 35.4948L7.4092 37.1841ZM30.3969 25.9409L29.8446 24.7101L28.0199 25.5291L28.5723 26.7598L30.3969 25.9409ZM29.8446 24.7101L28.4137 21.5222L26.5891 22.3411L28.0199 25.5291L29.8446 24.7101ZM29.8589 25.4954L31.8846 20.4997L30.0311 19.7482L28.0055 24.7439L29.8589 25.4954ZM32.7567 7.28364L31.2293 1.38592L29.2931 1.88736L30.8206 7.78508L32.7567 7.28364ZM28.502 1.44055L27.3544 6.73715L29.309 7.16066L30.4566 1.86405L28.502 1.44055ZM26.4067 18.0704L24.0759 14.8834L22.4616 16.064L24.7924 19.2511L26.4067 18.0704ZM23.6594 14.5531L23.3622 14.427L22.581 16.2681L22.8781 16.3942L23.6594 14.5531ZM4.91168 23.0338L4.31406 24.7989L6.20842 25.4403L6.80604 23.6752L4.91168 23.0338ZM4.31406 24.7989L3.68682 26.6515L5.58118 27.2929L6.20842 25.4403L4.31406 24.7989ZM6.16566 24.693L4.29687 20.7314L2.48802 21.5847L4.35682 25.5463L6.16566 24.693ZM3.39822 6.70849L4.96059 1.87741L3.05762 1.262L1.49526 6.09308L3.39822 6.70849ZM3.80157 1.7917L4.63598 6.79819L6.60877 6.46939L5.77436 1.46291L3.80157 1.7917ZM10.0641 14.8363L8.28306 16.9894L9.82414 18.2642L11.6052 16.1111L10.0641 14.8363ZM4.63598 6.79819C5.25853 10.5335 7.24616 13.9044 10.2134 16.2572L11.456 14.6901C8.87724 12.6453 7.14982 9.71568 6.60877 6.46939L4.63598 6.79819ZM27.3544 6.73715C26.682 9.84067 25.0186 12.6414 22.6152 14.7168L23.9223 16.2305C26.6541 13.8715 28.5448 10.6882 29.309 7.16066L27.3544 6.73715ZM31.2293 1.38592C30.859 -0.0438681 28.8147 -0.00288984 28.502 1.44055L30.4566 1.86405C30.3232 2.47985 29.4511 2.49734 29.2931 1.88736L31.2293 1.38592ZM31.8846 20.4997C33.5866 16.3022 33.8923 11.6684 32.7567 7.28364L30.8206 7.78508C31.8486 11.7541 31.5718 15.9486 30.0311 19.7482L31.8846 20.4997ZM8.47987 35.4948C5.73748 33.7567 4.53993 30.3682 5.58118 27.2929L3.68682 26.6515C2.34969 30.6007 3.88754 34.9521 7.4092 37.1841L8.47987 35.4948ZM6.80604 23.6752C7.47391 21.7027 8.49676 19.8689 9.82414 18.2642L8.28306 16.9894C6.8003 18.7819 5.65772 20.8304 4.91168 23.0338L6.80604 23.6752ZM23.3622 14.427C19.2191 12.6689 14.5307 12.7176 10.425 14.5615L11.2443 16.3859C14.8421 14.7702 18.9505 14.7275 22.581 16.2681L23.3622 14.427ZM4.96059 1.87741C4.76781 2.47352 3.90456 2.40967 3.80157 1.7917L5.77436 1.46291C5.53294 0.0143869 3.5095 -0.135266 3.05762 1.262L4.96059 1.87741ZM28.4137 21.5222C27.8672 20.3046 27.1946 19.1477 26.4067 18.0704L24.7924 19.2511C25.4977 20.2154 26.0999 21.2511 26.5891 22.3411L28.4137 21.5222ZM4.29687 20.7314C2.22589 16.3412 1.90457 11.3271 3.39822 6.70849L1.49526 6.09308C-0.15483 11.1954 0.200147 16.7347 2.48802 21.5847L4.29687 20.7314ZM26.6895 37.458C30.6916 35.1342 32.2918 30.1629 30.3969 25.9409L28.5723 26.7598C30.0479 30.0476 28.8017 33.9188 25.6852 35.7284L26.6895 37.458ZM17.6391 40.4003C17.1839 40.6646 16.6194 40.6537 16.1748 40.3719L15.1041 42.0611C16.1787 42.7423 17.5431 42.7688 18.6434 42.1299L17.6391 40.4003Z" fill="#444444"/>
<path d="M52.3097 22.7486L47.5671 41.7703C46.7462 45.0626 44.4239 47.7767 41.2981 49.0968C41.2871 49.1014 41.2745 49.0978 41.2675 49.0882C39.4033 46.5095 38.7718 43.2397 39.5416 40.1522L44.3735 20.7724C44.3791 20.7501 44.3906 20.7298 44.4068 20.7135L48.9825 16.1261C49.4435 15.6639 50.2309 15.8603 50.4209 16.4848L52.3081 22.6857C52.3143 22.7061 52.3149 22.7279 52.3097 22.7486Z" stroke="#444444" stroke-width="2"/>
</svg>
