<svg width="40" height="40" viewBox="0 0 40 40" fill="none" xmlns="http://www.w3.org/2000/svg">
<path d="M39 22.4363L38.9807 22.6974C38.8046 25.0768 37.1602 27.0924 34.8647 27.7428C33.6748 28.0799 32.3998 28.0776 31.2088 27.7441C28.8939 27.0958 27.1833 25.0832 26.9503 22.6905L26.9256 22.4363V11.0592C26.9256 10.6702 27.241 10.3549 27.63 10.3549H38.2956C38.6847 10.3549 39 10.6702 39 11.0592V22.4363Z" fill="#191919" stroke="#444444" stroke-width="1.42052"/>
<path d="M31.5424 28.2298L23.5116 30.8387L14.9833 27.3132V9.93261L23.2984 7.18274L31.5424 9.93261V28.2298Z" fill="#191919" stroke="#444444" stroke-width="1.42052"/>
<path d="M16.6146 30.8515L12.4313 32.4388C11.1284 32.9332 9.6928 32.9516 8.37768 32.4909L3.70258 30.8529C3.56149 30.8034 3.44947 30.6942 3.39656 30.5543L1.03275 24.3071C1.0111 24.2499 1 24.1892 1 24.128V14.5121C1 14.4393 1.01567 14.3675 1.04596 14.3013L3.40179 9.15698C3.45226 9.04676 3.54061 8.95833 3.65077 8.90775L7.57571 7.10563C9.1077 6.40223 10.8671 6.38604 12.4117 7.06112L16.6514 8.914C16.7581 8.96066 16.8455 9.04274 16.8988 9.14639L19.5442 14.2928C19.581 14.3644 19.6002 14.4437 19.6002 14.5242V24.1175C19.6002 24.1855 19.5865 24.2528 19.5599 24.3154L16.9009 30.5761C16.8469 30.7031 16.7435 30.8026 16.6146 30.8515Z" fill="#191919" stroke="#444444" stroke-width="1.42052"/>
</svg>
