<svg width="33" height="40" viewBox="0 0 33 40" fill="none" xmlns="http://www.w3.org/2000/svg">
<path fill-rule="evenodd" clip-rule="evenodd" d="M17.5 3.23212C17.7229 3.36069 17.9256 3.53583 18.0937 3.75752L29.798 19.1955C30.3494 19.9227 30.3385 20.9309 29.7716 21.6461L18.0673 36.4128C17.2666 37.423 15.7333 37.423 14.9326 36.4128L3.50894 22.0002H16.5H17.5V21.0002V3.23212ZM16.8711 3.00016C16.626 2.95437 16.3739 2.95437 16.1289 3.00016H16.8711ZM15.5 3.23212C15.2771 3.36069 15.0743 3.53583 14.9062 3.75752L3.20191 19.1955C3.01704 19.4393 2.89537 19.7148 2.83669 20.0002H15.5V3.23212ZM19.6874 2.54922C18.0868 0.438017 14.9131 0.438022 13.3125 2.54922L1.60817 17.9872C0.505484 19.4416 0.527184 21.458 1.66092 22.8884L13.3652 37.6551C14.9667 39.6756 18.0332 39.6756 19.6347 37.6551L31.339 22.8884C32.4727 21.458 32.4944 19.4416 31.3918 17.9872L19.6874 2.54922Z" fill="#444444"/>
</svg>
