<svg width="29" height="40" viewBox="0 0 29 40" fill="none" xmlns="http://www.w3.org/2000/svg">
<path d="M24.2917 35.321L16.9783 38.1738C15.6172 38.7048 14.1054 38.7 12.7477 38.1604L4.78856 34.9971C2.06046 33.9128 0.580348 30.9539 1.34874 28.1206L3.64732 19.645C3.97362 18.4418 3.90172 17.1653 3.44236 16.0064L1.96285 12.2737C0.854186 9.47669 2.07945 6.29711 4.77841 4.96734L12.2439 1.28909C13.8892 0.478479 15.8217 0.497809 17.4504 1.34116L24.4878 4.98517C27.0675 6.32099 28.2529 9.3656 27.2556 12.0941L25.775 16.145C25.3826 17.2185 25.3177 18.3844 25.5885 19.4949L27.8026 28.5744C28.4881 31.3853 26.9871 34.2695 24.2917 35.321Z" stroke="#444444" stroke-width="2"/>
</svg>
