<svg width="29" height="40" viewBox="0 0 29 40" fill="none" xmlns="http://www.w3.org/2000/svg">
<path d="M26.6841 29.1807L26.0844 30.5754C24.7267 33.7324 22.1399 36.199 18.9219 37.4049C16.1707 38.4359 13.1053 38.4602 10.3289 37.4995C6.73103 36.2546 3.81358 33.4646 2.45149 29.9094L2.02343 28.7921C1.34688 27.0263 1 25.1514 1 23.2604V15.2343C1 13.1331 1.45789 11.0572 2.34179 9.15097L2.61064 8.57117C3.89409 5.80329 6.12828 3.58793 8.90693 2.32796C12.1766 0.845317 15.9201 0.811143 19.2163 2.23384L19.5394 2.37328C22.3982 3.60718 24.7441 5.78906 26.1817 8.55107L26.3532 8.88063C27.4351 10.9593 28 13.2682 28 15.6116V22.7902C28 24.9876 27.5523 27.162 26.6841 29.1807Z" stroke="#444444" stroke-width="2"/>
</svg>
