<svg width="36" height="36" viewBox="0 0 36 36" fill="none" xmlns="http://www.w3.org/2000/svg">
<path d="M29.2872 1.56937L28.3216 1.82951L29.2872 1.56937ZM28.5071 1.58556L29.4826 1.80542L29.4826 1.80542L28.5071 1.58556ZM29.3149 18.0048L28.3935 17.6162L29.3149 18.0048ZM30.2027 4.96747L29.2371 5.22761L30.2027 4.96747ZM7.87542 20.0394L6.93221 19.7072L7.87542 20.0394ZM11.225 14.251L11.983 14.9033L11.225 14.251ZM7.18637 1.56335L6.20107 1.73417L7.18637 1.56335ZM24.9906 15.2873L25.7865 14.6818L24.9906 15.2873ZM6.64248 19.0618L5.74474 19.5023L6.64248 19.0618ZM5.6364 3.80176L4.6886 3.48291L5.6364 3.80176ZM18.8571 34.3142L18.3697 33.441L18.8571 34.3142ZM16.427 34.2679L15.9067 35.1219L16.427 34.2679ZM19.3445 35.1874L25.3227 31.8504L24.3479 30.1041L18.3697 33.441L19.3445 35.1874ZM10.3036 31.7079L15.9067 35.1219L16.9474 33.4139L11.3443 30L10.3036 31.7079ZM28.9859 20.51L27.8905 18.1637L26.0783 19.0097L27.1737 21.3561L28.9859 20.51ZM29.0012 21.3216L30.2363 18.3934L28.3935 17.6162L27.1584 20.5444L29.0012 21.3216ZM31.1683 4.70734L30.2528 1.30924L28.3216 1.82951L29.2371 5.22761L31.1683 4.70734ZM27.5315 1.36569L26.6043 5.47998L28.5553 5.91971L29.4826 1.80542L27.5315 1.36569ZM25.7865 14.6818L23.9663 12.2893L22.3746 13.5002L24.1947 15.8928L25.7865 14.6818ZM23.5482 11.9688L23.2875 11.8625L22.5321 13.7143L22.7927 13.8207L23.5482 11.9688ZM6.93221 19.7072L6.61748 20.6008L8.5039 21.2652L8.81863 20.3716L6.93221 19.7072ZM6.61748 20.6008L6.48146 20.987L8.36788 21.6514L8.5039 21.2652L6.61748 20.6008ZM8.45843 20.4925L7.54022 18.6213L5.74474 19.5023L6.66295 21.3735L8.45843 20.4925ZM6.58421 4.12061L7.35723 1.82271L5.46162 1.18501L4.6886 3.48291L6.58421 4.12061ZM6.20107 1.73417L6.86984 5.59166L8.84044 5.25002L8.17167 1.39253L6.20107 1.73417ZM11.634 12.2425L10.467 13.5988L11.983 14.9033L13.15 13.547L11.634 12.2425ZM6.86984 5.59166C7.42857 8.81446 9.18449 11.7071 11.7858 13.69L12.9982 12.0995C10.7981 10.4223 9.31301 7.9758 8.84044 5.25002L6.86984 5.59166ZM26.6043 5.47998C26.0174 8.08386 24.5855 10.4204 22.5317 12.1253L23.8092 13.6642C26.2026 11.6773 27.8714 8.95427 28.5553 5.91971L26.6043 5.47998ZM30.2528 1.30924C29.8721 -0.103691 27.8533 -0.0617894 27.5315 1.36569L29.4826 1.80542C29.3453 2.41441 28.484 2.4323 28.3216 1.82951L30.2528 1.30924ZM30.2363 18.3934C32.063 14.0626 32.391 9.2458 31.1683 4.70734L29.2371 5.22761C30.3439 9.3358 30.047 13.6959 28.3935 17.6162L30.2363 18.3934ZM11.3443 30C8.50448 28.2697 7.26319 24.788 8.36788 21.6514L6.48146 20.987C5.06286 25.0149 6.65688 29.486 10.3036 31.7079L11.3443 30ZM8.81863 20.3716C9.52431 18.368 10.5974 16.5135 11.983 14.9033L10.467 13.5988C8.91923 15.3975 7.72049 17.469 6.93221 19.7072L8.81863 20.3716ZM23.2875 11.8625C19.6609 10.383 15.5916 10.4242 11.9956 11.9766L12.7884 13.8128C15.8913 12.4732 19.4027 12.4377 22.5321 13.7143L23.2875 11.8625ZM7.35723 1.82271C7.15935 2.41094 6.30709 2.3457 6.20107 1.73417L8.17167 1.39253C7.92316 -0.0408673 5.92546 -0.193816 5.46162 1.18501L7.35723 1.82271ZM27.8905 18.1637C27.3152 16.9314 26.6099 15.7642 25.7865 14.6818L24.1947 15.8928C24.9318 16.8617 25.5633 17.9066 26.0783 19.0097L27.8905 18.1637ZM7.54022 18.6213C5.32292 14.1026 4.97934 8.89126 6.58421 4.12061L4.6886 3.48291C2.91564 8.75322 3.2952 14.5104 5.74474 19.5023L7.54022 18.6213ZM25.3227 31.8504C29.3276 29.6149 30.9262 24.666 28.9859 20.51L27.1737 21.3561C28.6705 24.562 27.4373 28.3796 24.3479 30.1041L25.3227 31.8504ZM18.3697 33.441C17.9254 33.6891 17.3819 33.6787 16.9474 33.4139L15.9067 35.1219C16.9571 35.7618 18.2706 35.7869 19.3445 35.1874L18.3697 33.441Z" fill="#444444"/>
</svg>
