<svg width="28" height="40" viewBox="0 0 28 40" fill="none" xmlns="http://www.w3.org/2000/svg">
<path d="M22.7675 35.736L17.5681 37.7074C15.3664 38.5423 12.9406 38.5734 10.7182 37.7953L4.84302 35.7383C4.60443 35.6547 4.41498 35.47 4.32546 35.2336L1.05545 26.5976C1.01879 26.5008 1 26.3981 1 26.2946V12.9226C1 12.7995 1.02654 12.6779 1.07781 12.566L4.33431 5.45998C4.4197 5.27365 4.56913 5.12415 4.75543 5.03867L9.48846 2.86709C12.0775 1.67918 15.0504 1.65182 17.6609 2.79189L22.8297 5.04924C23.0102 5.1281 23.1581 5.26685 23.2482 5.44206L26.9052 12.5516C26.9675 12.6726 27 12.8068 27 12.943V26.2768C27 26.3919 26.9768 26.5057 26.9318 26.6116L23.2517 35.2705C23.1604 35.4851 22.9855 35.6533 22.7675 35.736Z" stroke="#444444" stroke-width="2"/>
</svg>
