<svg width="36" height="36" viewBox="0 0 36 36" fill="none" xmlns="http://www.w3.org/2000/svg">
<path d="M1 6C0.447715 6 5.96046e-08 6.44772 5.96046e-08 7C5.96046e-08 7.55228 0.447715 8 1 8V6ZM35 8C35.5523 8 36 7.55228 36 7C36 6.44772 35.5523 6 35 6V8ZM7.5 17.5C6.94772 17.5 6.5 17.9477 6.5 18.5C6.5 19.0523 6.94772 19.5 7.5 19.5V17.5ZM28.5 19.5C29.0523 19.5 29.5 19.0523 29.5 18.5C29.5 17.9477 29.0523 17.5 28.5 17.5V19.5ZM1 28C0.447715 28 5.96046e-08 28.4477 5.96046e-08 29C5.96046e-08 29.5523 0.447715 30 1 30V28ZM35 30C35.5523 30 36 29.5523 36 29C36 28.4477 35.5523 28 35 28V30ZM1 8H35V6H1V8ZM7.5 19.5H28.5V17.5H7.5V19.5ZM1 30H35V28H1V30Z" fill="#444444"/>
</svg>
