<svg width="29" height="40" viewBox="0 0 29 40" fill="none" xmlns="http://www.w3.org/2000/svg">
<path d="M18.311 38.0963L17.8968 38.2937C15.638 39.3704 13.0088 39.3444 10.7717 38.2235L10.6279 38.1514C10.2347 37.9544 9.82259 37.7976 9.39785 37.6835C7.26352 37.11 5.56446 35.4952 4.88311 33.3928L4.41213 31.9396C4.21119 31.3196 3.94071 30.7243 3.60586 30.1651L2.68992 28.6357C1.60145 26.8181 1.21908 24.6638 1.61556 22.5826L1.78193 21.7093C1.96659 20.74 1.98377 19.7462 1.8327 18.7711L1.49408 16.5853C1.18057 14.5616 1.7695 12.5022 3.10553 10.9502C3.7671 10.1817 4.2537 9.27853 4.5316 8.30332L5.12742 6.21252C5.65397 4.3648 7.10763 2.92646 8.96083 2.41953C9.26281 2.33692 9.55718 2.22865 9.84072 2.09589L10.621 1.73054C12.9531 0.63862 15.6587 0.684331 17.9525 1.85441L18.1755 1.96815C18.6018 2.18558 19.0518 2.35287 19.5166 2.46669C21.4851 2.94875 23.0932 4.3634 23.8222 6.25436L24.7576 8.68038C25.0396 9.41188 25.4279 10.0978 25.91 10.716C27.2453 12.4282 27.8248 14.6108 27.5148 16.7598L27.2104 18.8705C27.0791 19.7807 27.094 20.7061 27.2547 21.6116L27.4145 22.5125C27.7911 24.6361 27.3595 26.8238 26.2046 28.6453L25.2256 30.1892C24.8812 30.7324 24.5985 31.3124 24.3828 31.9184L23.8095 33.5297C23.0873 35.5589 21.4282 37.1134 19.3563 37.7019C18.9975 37.8039 18.6478 37.9358 18.311 38.0963Z" stroke="#444444" stroke-width="2"/>
</svg>
