<svg width="29" height="36" viewBox="0 0 29 36" fill="none" xmlns="http://www.w3.org/2000/svg">
<path fill-rule="evenodd" clip-rule="evenodd" d="M13.7931 1.19631C13.9014 0.654749 13.5502 0.127924 13.0086 0.0196121C12.4671 -0.0886998 11.9402 0.262517 11.8319 0.804077L9.79895 10.9689H4.375C3.82272 10.9689 3.375 11.4167 3.375 11.9689C3.375 12.5212 3.82272 12.9689 4.375 12.9689H9.39895L7.77395 21.0939H1C0.447715 21.0939 0 21.5417 0 22.0939C0 22.6462 0.447715 23.0939 1 23.0939H7.37395L5.08192 34.5541C4.97361 35.0956 5.32482 35.6225 5.86638 35.7308C6.40794 35.8391 6.93477 35.4879 7.04308 34.9463L9.41356 23.0939H17.4989L15.2069 34.5541C15.0986 35.0956 15.4498 35.6225 15.9914 35.7308C16.5329 35.8391 17.0598 35.4879 17.1681 34.9463L19.5386 23.0939H24.625C25.1773 23.0939 25.625 22.6462 25.625 22.0939C25.625 21.5417 25.1773 21.0939 24.625 21.0939H19.9386L21.5636 12.9689H28C28.5523 12.9689 29 12.5212 29 11.9689C29 11.4167 28.5523 10.9689 28 10.9689H21.9636L23.9181 1.19631C24.0264 0.654749 23.6752 0.127924 23.1336 0.0196121C22.5921 -0.0886998 22.0652 0.262517 21.9569 0.804077L19.9239 10.9689H11.8386L13.7931 1.19631ZM17.8989 21.0939L19.5239 12.9689H11.4386L9.81355 21.0939H17.8989Z" fill="#444444"/>
</svg>
