<svg width="36" height="36" viewBox="0 0 36 36" fill="none" xmlns="http://www.w3.org/2000/svg">
<path d="M18.2069 34.5539C18.0986 35.0954 18.4498 35.6223 18.9914 35.7306C19.5329 35.8389 20.0597 35.4877 20.1681 34.9461L18.2069 34.5539ZM26.9181 1.19612C27.0264 0.654556 26.6751 0.127731 26.1336 0.0194194C25.592 -0.0888926 25.0652 0.262324 24.9569 0.803884L26.9181 1.19612ZM20.1681 34.9461L26.9181 1.19612L24.9569 0.803884L18.2069 34.5539L20.1681 34.9461Z" fill="#444444"/>
<path d="M8.08187 34.5539C7.97356 35.0954 8.32478 35.6223 8.86634 35.7306C9.4079 35.8389 9.93472 35.4877 10.043 34.9461L8.08187 34.5539ZM16.793 1.19612C16.9013 0.654556 16.5501 0.127731 16.0086 0.0194194C15.467 -0.0888926 14.9402 0.262324 14.8319 0.803884L16.793 1.19612ZM10.043 34.9461L16.793 1.19612L14.8319 0.803884L8.08187 34.5539L10.043 34.9461Z" fill="#444444"/>
<path d="M7.37498 10.9688C6.8227 10.9688 6.37498 11.4165 6.37498 11.9688C6.37498 12.521 6.8227 12.9687 7.37498 12.9687V10.9688ZM31 12.9687C31.5523 12.9687 32 12.521 32 11.9688C32 11.4165 31.5523 10.9688 31 10.9688V12.9687ZM7.37498 12.9687H31V10.9688H7.37498V12.9687Z" fill="#444444"/>
<path d="M4.00006 21.0938C3.44778 21.0938 3.00006 21.5415 3.00006 22.0938C3.00006 22.646 3.44778 23.0937 4.00006 23.0937V21.0938ZM27.6251 23.0937C28.1773 23.0937 28.6251 22.646 28.6251 22.0938C28.6251 21.5415 28.1773 21.0938 27.6251 21.0938V23.0937ZM4.00006 23.0937H27.6251V21.0938H4.00006V23.0937Z" fill="#444444"/>
</svg>
