<svg width="35" height="42" viewBox="0 0 35 42" fill="none" xmlns="http://www.w3.org/2000/svg">
<path d="M19.9775 40V23.1111M19.9775 40L4.51685 30.5M19.9775 40L34 31.9074M19.9775 23.1111L27.8876 15.7222M19.9775 23.1111L34 31.9074M19.9775 23.1111L15.8427 14.1389M27.8876 15.7222L34 13.6111M27.8876 15.7222L23.573 2M34 13.6111L23.573 2M34 13.6111V31.9074M23.573 2L11.7079 5.16667M23.573 2L15.8427 14.1389M11.7079 5.16667L2 17.1296L4.51685 30.5M11.7079 5.16667L15.8427 14.1389M4.51685 30.5L15.8427 14.1389" stroke="#444444" stroke-width="2"/>
</svg>
