<svg width="35" height="28" viewBox="0 0 35 28" fill="none" xmlns="http://www.w3.org/2000/svg">
<path d="M9.09575 15.4056L16.3524 24.5609C17.0971 25.5005 18.523 25.5005 19.2677 24.5609L26.5244 15.4056C27.0516 14.7404 27.0617 13.8028 26.5489 13.1265L19.2923 3.55497C18.548 2.57326 17.0722 2.57326 16.3279 3.55497L9.07122 13.1265C8.55847 13.8028 8.56857 14.7404 9.09575 15.4056Z" stroke="#444444" stroke-width="1.24"/>
<path d="M2.08947 24.3185C1.28232 24.9539 1.1431 26.1233 1.77852 26.9305C2.41393 27.7376 3.58336 27.8769 4.39051 27.2414L2.08947 24.3185ZM33.5305 4.30144C34.3377 3.66602 34.4769 2.49659 33.8415 1.68945C33.206 0.882296 32.0366 0.743078 31.2295 1.37849L33.5305 4.30144ZM4.39051 27.2414L33.5305 4.30144L31.2295 1.37849L2.08947 24.3185L4.39051 27.2414Z" fill="#1A1A1A"/>
<path d="M3.06664 1.93619C2.22508 1.3471 1.06532 1.55177 0.476229 2.39332C-0.11286 3.23488 0.0918045 4.39464 0.93336 4.98373L3.06664 1.93619ZM31.9334 26.6837C32.7749 27.2728 33.9347 27.0682 34.5238 26.2266C35.1129 25.385 34.9082 24.2253 34.0666 23.6362L31.9334 26.6837ZM0.93336 4.98373L31.9334 26.6837L34.0666 23.6362L3.06664 1.93619L0.93336 4.98373Z" fill="#1A1A1A"/>
<path d="M2.85648 25.2928C2.58743 25.5046 2.54103 25.8944 2.75283 26.1635C2.96464 26.4325 3.35445 26.4789 3.6235 26.2671L2.85648 25.2928ZM32.7635 3.32712C33.0325 3.11532 33.079 2.72551 32.8671 2.45646C32.6553 2.18741 32.2655 2.141 31.9965 2.35281L32.7635 3.32712ZM3.6235 26.2671L32.7635 3.32712L31.9965 2.35281L2.85648 25.2928L3.6235 26.2671Z" fill="#444444"/>
<path d="M2.35555 2.95204C2.07503 2.75567 1.68844 2.8239 1.49208 3.10441C1.29571 3.38493 1.36393 3.77152 1.64445 3.96788L2.35555 2.95204ZM32.6445 25.6679C32.925 25.8642 33.3116 25.796 33.5079 25.5155C33.7043 25.235 33.6361 24.8484 33.3555 24.652L32.6445 25.6679ZM1.64445 3.96788L32.6445 25.6679L33.3555 24.652L2.35555 2.95204L1.64445 3.96788Z" fill="#444444"/>
</svg>
